<svg xmlns="http://www.w3.org/2000/svg" width="40" height="34" viewBox="0 0 40 34">
  <defs>
    <style>
      .cls-1 {
        fill: #fff;
        fill-rule: evenodd;
      }
    </style>
  </defs>
  <path class="cls-1" d="M702.6,1152.69l-17.666-14.44a1.111,1.111,0,0,0-1.172-.15,1.1,1.1,0,0,0-.631.99v7.62c-8.575.31-14.469,3.31-17.535,8.93-2.639,4.84-2.615,10.59-2.59,14.38v0.88a1.107,1.107,0,0,0,.828,1.07,1.314,1.314,0,0,0,.278.03,1.091,1.091,0,0,0,.96-0.55c5.984-10.47,10.911-10.97,18.051-11v7.59a1.092,1.092,0,0,0,.639.99,1.126,1.126,0,0,0,1.181-.15l17.657-14.49a1.1,1.1,0,0,0,.4-0.84A1.122,1.122,0,0,0,702.6,1152.69Zm-17.256,13.01v-6.35a1.049,1.049,0,0,0-.328-0.77,1.132,1.132,0,0,0-.778-0.32c-4.46,0-7.878.12-11.2,1.65-2.869,1.33-5.353,3.58-7.8,7.12,0.1-3.23.524-7.08,2.3-10.34,2.82-5.18,8.28-7.74,16.7-7.81a1.111,1.111,0,0,0,1.1-1.1v-6.36l14.813,12.13Z" transform="translate(-663 -1138)"/>
</svg>
