<svg xmlns="http://www.w3.org/2000/svg" width="40" height="34"><path d="M39.6 14.69L21.934.25A1.111 1.111 0 0020.762.1a1.1 1.1 0 00-.631.99v7.62c-8.575.31-14.469 3.31-17.535 8.93C-.043 22.48-.019 28.23.006 32.02v.88a1.107 1.107 0 00.828 1.07 1.314 1.314 0 00.278.03 1.091 1.091 0 00.96-.55c5.984-10.47 10.911-10.97 18.051-11v7.59a1.092 1.092 0 00.639.99 1.126 1.126 0 001.181-.15L39.6 16.39a1.1 1.1 0 00.4-.84 1.122 1.122 0 00-.4-.86zM22.344 27.7v-6.35a1.049 1.049 0 00-.328-.77 1.132 1.132 0 00-.778-.32c-4.46 0-7.878.12-11.2 1.65-2.869 1.33-5.353 3.58-7.8 7.12.1-3.23.524-7.08 2.3-10.34 2.82-5.18 8.28-7.74 16.7-7.81a1.111 1.111 0 001.1-1.1V3.42l14.813 12.13z" fill="#fff" fill-rule="evenodd"/></svg>